<svg width="40" height="41" viewBox="0 0 40 41" fill="none" xmlns="http://www.w3.org/2000/svg">
<path d="M3.33333 34.1004C5.17428 34.1004 6.66667 35.5928 6.66667 37.4338C6.66667 39.2747 5.17428 40.7671 3.33333 40.7671C1.49238 40.7671 -1.60941e-07 39.2747 0 37.4338C1.60941e-07 35.5928 1.49238 34.1004 3.33333 34.1004Z" fill="url(#paint0_linear_921_1066)"/>
<path d="M3.33333 22.9893C5.17428 22.9893 6.66667 24.4817 6.66667 26.3226C6.66667 28.1636 5.17428 29.656 3.33333 29.656C1.49238 29.656 8.10423e-07 28.1636 9.71364e-07 26.3226C1.13231e-06 24.4817 1.49238 22.9893 3.33333 22.9893Z" fill="url(#paint1_linear_921_1066)"/>
<path d="M28.8889 37.4338C28.8889 35.5928 27.3965 34.1004 25.5556 34.1004C23.7146 34.1004 22.2222 35.5928 22.2222 37.4338C22.2222 39.2747 23.7146 40.7671 25.5556 40.7671C27.3965 40.7671 28.8889 39.2747 28.8889 37.4338Z" fill="url(#paint2_linear_921_1066)"/>
<path d="M25.5556 22.9893C27.3965 22.9893 28.8889 24.4817 28.8889 26.3227C28.8889 28.1636 27.3965 29.656 25.5556 29.656C23.7146 29.656 22.2222 28.1636 22.2222 26.3226C22.2222 24.4817 23.7146 22.9893 25.5556 22.9893Z" fill="url(#paint3_linear_921_1066)"/>
<path d="M28.8889 15.2115C28.8889 13.3706 27.3965 11.8782 25.5556 11.8782C23.7146 11.8782 22.2222 13.3706 22.2222 15.2115C22.2222 17.0525 23.7146 18.5449 25.5556 18.5449C27.3965 18.5449 28.8889 17.0525 28.8889 15.2115Z" fill="url(#paint4_linear_921_1066)"/>
<path d="M25.5556 0.76709C27.3965 0.76709 28.8889 2.25948 28.8889 4.10042C28.8889 5.94138 27.3965 7.43376 25.5556 7.43376C23.7146 7.43376 22.2222 5.94137 22.2222 4.10043C22.2222 2.25948 23.7146 0.76709 25.5556 0.76709Z" fill="url(#paint5_linear_921_1066)"/>
<path d="M17.7778 37.4338C17.7778 35.5928 16.2854 34.1004 14.4444 34.1004C12.6035 34.1004 11.1111 35.5928 11.1111 37.4338C11.1111 39.2747 12.6035 40.7671 14.4444 40.7671C16.2854 40.7671 17.7778 39.2747 17.7778 37.4338Z" fill="url(#paint6_linear_921_1066)"/>
<path d="M14.4444 22.9893C16.2854 22.9893 17.7778 24.4817 17.7778 26.3227C17.7778 28.1636 16.2854 29.656 14.4444 29.656C12.6035 29.656 11.1111 28.1636 11.1111 26.3226C11.1111 24.4817 12.6035 22.9893 14.4444 22.9893Z" fill="url(#paint7_linear_921_1066)"/>
<path d="M40 37.4338C40 35.5928 38.5076 34.1004 36.6667 34.1004C34.8257 34.1004 33.3333 35.5928 33.3333 37.4338C33.3333 39.2747 34.8257 40.7671 36.6667 40.7671C38.5076 40.7671 40 39.2747 40 37.4338Z" fill="url(#paint8_linear_921_1066)"/>
<path d="M36.6667 22.9893C38.5076 22.9893 40 24.4817 40 26.3227C40 28.1636 38.5076 29.656 36.6667 29.656C34.8257 29.656 33.3333 28.1636 33.3333 26.3226C33.3333 24.4817 34.8257 22.9893 36.6667 22.9893Z" fill="url(#paint9_linear_921_1066)"/>
<path d="M40 15.2115C40 13.3706 38.5076 11.8782 36.6667 11.8782C34.8257 11.8782 33.3333 13.3706 33.3333 15.2115C33.3333 17.0525 34.8257 18.5449 36.6667 18.5449C38.5076 18.5449 40 17.0525 40 15.2115Z" fill="url(#paint10_linear_921_1066)"/>
<path d="M36.6667 0.767091C38.5076 0.767091 40 2.25948 40 4.10042C40 5.94137 38.5076 7.43376 36.6667 7.43376C34.8257 7.43376 33.3333 5.94137 33.3333 4.10042C33.3333 2.25948 34.8257 0.767091 36.6667 0.767091Z" fill="url(#paint11_linear_921_1066)"/>
<defs>
<linearGradient id="paint0_linear_921_1066" x1="0.441177" y1="20.7671" x2="40" y2="20.7671" gradientUnits="userSpaceOnUse">
<stop stop-color="#A4B7FA"/>
<stop offset="1" stop-color="#ADDDFF"/>
</linearGradient>
<linearGradient id="paint1_linear_921_1066" x1="0.441177" y1="20.7671" x2="40" y2="20.7671" gradientUnits="userSpaceOnUse">
<stop stop-color="#A4B7FA"/>
<stop offset="1" stop-color="#ADDDFF"/>
</linearGradient>
<linearGradient id="paint2_linear_921_1066" x1="0.441177" y1="20.7671" x2="40" y2="20.7671" gradientUnits="userSpaceOnUse">
<stop stop-color="#A4B7FA"/>
<stop offset="1" stop-color="#ADDDFF"/>
</linearGradient>
<linearGradient id="paint3_linear_921_1066" x1="0.441177" y1="20.7671" x2="40" y2="20.7671" gradientUnits="userSpaceOnUse">
<stop stop-color="#A4B7FA"/>
<stop offset="1" stop-color="#ADDDFF"/>
</linearGradient>
<linearGradient id="paint4_linear_921_1066" x1="0.441177" y1="20.7671" x2="40" y2="20.7671" gradientUnits="userSpaceOnUse">
<stop stop-color="#A4B7FA"/>
<stop offset="1" stop-color="#ADDDFF"/>
</linearGradient>
<linearGradient id="paint5_linear_921_1066" x1="0.441177" y1="20.7671" x2="40" y2="20.7671" gradientUnits="userSpaceOnUse">
<stop stop-color="#A4B7FA"/>
<stop offset="1" stop-color="#ADDDFF"/>
</linearGradient>
<linearGradient id="paint6_linear_921_1066" x1="0.441177" y1="20.7671" x2="40" y2="20.7671" gradientUnits="userSpaceOnUse">
<stop stop-color="#A4B7FA"/>
<stop offset="1" stop-color="#ADDDFF"/>
</linearGradient>
<linearGradient id="paint7_linear_921_1066" x1="0.441177" y1="20.7671" x2="40" y2="20.7671" gradientUnits="userSpaceOnUse">
<stop stop-color="#A4B7FA"/>
<stop offset="1" stop-color="#ADDDFF"/>
</linearGradient>
<linearGradient id="paint8_linear_921_1066" x1="0.441177" y1="20.7671" x2="40" y2="20.7671" gradientUnits="userSpaceOnUse">
<stop stop-color="#A4B7FA"/>
<stop offset="1" stop-color="#ADDDFF"/>
</linearGradient>
<linearGradient id="paint9_linear_921_1066" x1="0.441177" y1="20.7671" x2="40" y2="20.7671" gradientUnits="userSpaceOnUse">
<stop stop-color="#A4B7FA"/>
<stop offset="1" stop-color="#ADDDFF"/>
</linearGradient>
<linearGradient id="paint10_linear_921_1066" x1="0.441177" y1="20.7671" x2="40" y2="20.7671" gradientUnits="userSpaceOnUse">
<stop stop-color="#A4B7FA"/>
<stop offset="1" stop-color="#ADDDFF"/>
</linearGradient>
<linearGradient id="paint11_linear_921_1066" x1="0.441177" y1="20.7671" x2="40" y2="20.7671" gradientUnits="userSpaceOnUse">
<stop stop-color="#A4B7FA"/>
<stop offset="1" stop-color="#ADDDFF"/>
</linearGradient>
</defs>
</svg>
