<svg width="102" height="74" viewBox="0 0 102 74" fill="none" xmlns="http://www.w3.org/2000/svg">
<g clip-path="url(#clip0_906_13439)">
<path d="M57.1604 22.0237C56.9387 21.6734 56.8056 21.2355 56.8056 20.7976C56.8056 20.3598 56.9387 19.7905 57.1604 19.4402C58.402 17.426 60.4419 14.361 62.3487 11.7337C64.1225 9.23787 63.2356 8.49349 62.5705 7.74911C61.9053 7.04852 61.3288 6.56687 60.708 6.129C59.0672 5.03432 58.1803 6.74201 58.1803 6.74201C58.1803 6.74201 51.3512 17.6012 50.2869 19.1337C49.8878 19.703 49.7548 20.2284 49.7104 20.7538C49.7548 21.2355 49.8878 21.8047 50.2869 22.374C51.3512 23.9065 58.4021 35.1598 58.4021 35.1598C58.4021 35.1598 59.2003 36.6485 60.708 35.3787C61.3731 34.8095 61.8609 34.4154 62.5705 33.7586C63.3243 33.1018 64.1669 32.226 62.3487 29.774C60.4419 27.103 58.402 24.0379 57.1604 22.0237Z" fill="#56B8FF"/>
<path d="M101.461 22.0237C101.461 21.9799 101.461 21.9799 101.461 22.0237C101.417 21.3231 101.195 20.535 100.619 19.7468C99.1109 17.6012 88.7342 1.04977 88.7342 1.04977C88.7342 1.04977 87.8473 -0.614137 85.8074 1.2687C84.9649 2.05687 85.497 1.53143 84.5658 2.53853C83.5902 3.58941 82.792 5.73498 85.364 9.23794C88.1134 13.0036 90.9514 17.3385 92.7252 20.1847C93.0357 20.6663 93.1687 21.3231 93.1687 21.9362C93.1687 21.9362 93.1687 22.0237 93.1687 22.0675C93.1687 22.1113 93.1687 22.1551 93.1687 22.1989C93.1687 22.8119 93.0357 23.4687 92.7252 23.9504C90.9514 26.8403 88.1134 31.1314 85.364 34.8971C82.8363 38.4001 83.5902 40.5456 84.5658 41.5965C85.497 42.6036 84.9649 42.0782 85.8074 42.8663C87.8473 44.7492 88.7342 43.0853 88.7342 43.0853C88.7342 43.0853 99.1109 26.5338 100.619 24.3882C101.151 23.6001 101.417 22.8119 101.461 22.1113C101.461 22.0675 101.461 22.0675 101.461 22.0237Z" fill="#56B8FF"/>
<path d="M44.3006 38.0499H45.1432L48.2473 51.6676H48.2916L49.7107 44.8807L51.4845 37.1304H52.6818L48.8238 53.5943H47.6265L45.897 46.0191L44.7441 40.283L43.5911 45.9316L41.8173 53.5943H40.62L36.762 37.1304H37.9593L39.7331 44.8807L41.1521 51.6676H41.1965L44.3006 38.0499Z" fill="#252525"/>
<path d="M53.7461 49.0842V45.6688C53.7461 42.1658 55.0321 41.0273 57.7371 41.0273C60.4422 41.0273 61.7282 42.0782 61.7282 45.7125V49.0404C61.7282 52.4995 60.4422 53.7256 57.7371 53.7256C55.0321 53.7694 53.7461 52.7185 53.7461 49.0842ZM60.6639 49.0404V45.7563C60.6639 43.0853 60.2204 42.0344 57.7371 42.0344C55.3869 42.0344 54.8104 43.0853 54.8104 45.7125V48.9966C54.8104 51.6676 55.2538 52.7623 57.7371 52.7623C60.0874 52.7623 60.6639 51.6676 60.6639 49.0404Z" fill="#252525"/>
<path d="M65.6307 41.0273L65.6751 42.5161C66.2072 41.509 67.4932 40.7646 69.0453 41.0273V42.0344C67.1384 41.7279 65.7637 42.9539 65.7637 44.7054V53.5504H64.6995V40.9835H65.6307V41.0273Z" fill="#252525"/>
<path d="M78.2688 53.594L73.7456 47.3762H72.5483V53.594H71.4397V37.1738H72.5483V46.3253H73.7456L77.781 41.0271H79.067L74.6325 46.8945L79.5992 53.6377H78.2688V53.594Z" fill="#252525"/>
<path d="M7.80471 60.5565C7.80471 58.5423 6.47436 57.7979 4.56753 57.7979C2.30594 57.7979 1.06428 58.4985 1.06428 61.1695C1.06428 64.1471 2.83807 64.1033 5.41008 64.4098C7.84905 64.7163 9.26809 66.2926 9.26809 68.7009C9.26809 72.7293 7.31691 73.6488 4.43449 73.6488C1.50773 73.6488 0 72.379 0 69.7518H1.01993C1.01993 71.766 2.1729 72.6417 4.43449 72.6417C7.18388 72.6417 8.15946 71.547 8.15946 68.7009C8.15946 65.7672 6.07526 65.4169 3.59194 65.1979C1.86249 65.0228 0 64.2784 0 61.2133C0 58.1045 1.55207 56.8784 4.56753 56.8784C6.91781 56.8784 8.6916 57.6666 8.82464 60.6003H7.80471V60.5565Z" fill="#252525"/>
<path d="M11.574 68.9635V65.5482C11.574 62.0452 12.86 60.9067 15.565 60.9067C18.2701 60.9067 19.5561 61.9576 19.5561 65.5919V68.9198C19.5561 72.3789 18.2701 73.605 15.565 73.605C12.86 73.6488 11.574 72.5979 11.574 68.9635ZM18.4918 68.9198V65.6357C18.4918 62.9647 18.0483 61.9138 15.565 61.9138C13.2147 61.9138 12.6383 62.9647 12.6383 65.5919V68.876C12.6383 71.547 13.0817 72.6416 15.565 72.6416C17.9153 72.6416 18.4918 71.547 18.4918 68.9198Z" fill="#252525"/>
<path d="M25.5426 73.5611C22.9263 73.7362 22.4385 72.8167 22.4385 70.0581V57.0972H23.5027V70.1019C23.5027 72.2912 23.7688 72.5977 25.5426 72.5977V73.5611Z" fill="#252525"/>
<path d="M38.6689 58.1045L39.7331 57.9731V60.9069H42.3495V61.914H39.7331V69.9708C39.7331 72.2915 40.4426 72.7293 42.4825 72.598V73.5175C39.6001 73.7802 38.6245 72.7293 38.6245 69.9708V58.1045H38.6689Z" fill="#252525"/>
<path d="M47.1831 57.7541C47.1831 58.7612 45.5867 58.7612 45.5867 57.7541C45.5867 56.7908 47.1831 56.747 47.1831 57.7541ZM46.917 73.4737H45.8527V60.9068H46.917V73.4737Z" fill="#252525"/>
<path d="M49.8438 68.9635V65.5482C49.8438 62.0452 51.1298 60.9067 53.8348 60.9067C56.5398 60.9067 57.8258 61.9576 57.8258 65.5919V68.9198C57.8258 72.3789 56.5398 73.605 53.8348 73.605C51.1298 73.6488 49.8438 72.5979 49.8438 68.9635ZM56.7615 68.9198V65.6357C56.7615 62.9647 56.3181 61.9138 53.8348 61.9138C51.4845 61.9138 50.908 62.9647 50.908 65.5919V68.876C50.908 71.547 51.3515 72.6416 53.8348 72.6416C56.1851 72.6416 56.7615 71.547 56.7615 68.9198Z" fill="#252525"/>
<path d="M71.7945 70.0143C71.7945 71.4592 72.5484 72.5101 74.7656 72.5101C76.7168 72.5101 77.6924 71.5906 77.6924 69.9705C77.6924 67.6936 75.8742 67.6498 74.1004 67.4308C72.4153 67.2119 70.7746 66.8178 70.7746 64.1906C70.7746 62.1326 72.1049 60.8628 74.6769 60.8628C77.3376 60.8628 78.4906 62.1326 78.4906 64.1468H77.4263C77.3819 62.6143 76.6281 61.8261 74.6769 61.8261C72.7257 61.8261 71.8832 62.7018 71.8832 64.1468C71.8832 66.2924 73.3909 66.3362 75.0317 66.5113C76.8498 66.774 78.801 67.1681 78.801 69.9267C78.801 72.1161 77.515 73.5172 74.7656 73.5172C72.3266 73.5172 70.7302 72.5539 70.7302 69.9705H71.7945V70.0143Z" fill="#252525"/>
<path d="M34.2786 61.1258V69.0513C34.2786 71.6785 33.7022 72.7732 31.3519 72.7732C28.8686 72.7732 28.4251 71.6785 28.4251 69.0075V61.082H27.3608V69.0513C27.3608 72.6856 28.6468 73.7365 31.3519 73.7365C34.0569 73.7365 35.3429 72.5104 35.3429 69.0513V61.082H34.2786V61.1258Z" fill="#252525"/>
<path d="M67.2713 73.5174V65.5919C67.2713 62.9647 66.6949 61.87 64.3446 61.87C61.8612 61.87 61.4178 62.9647 61.4178 65.6357V73.5612H60.3535V65.5919C60.3535 61.9576 61.6395 60.9067 64.3446 60.9067C67.0496 60.9067 68.3356 62.1328 68.3356 65.5919V73.5612H67.2713V73.5174Z" fill="#252525"/>
</g>
<defs>
<clipPath id="clip0_906_13439">
<rect width="102" height="74" fill="white" transform="translate(0 -0.000976562)"/>
</clipPath>
</defs>
</svg>
