<svg width="24" height="24" viewBox="0 0 24 24" fill="none" xmlns="http://www.w3.org/2000/svg">
<path d="M24 22.6763C24 23.4079 23.4069 24.001 22.6755 24.001H16.5595V14.7069H19.6791L20.1462 11.0849H16.5595V8.77239C16.5595 7.72372 16.8507 7.00908 18.3545 7.00908L20.2725 7.00824V3.76862C19.9408 3.72448 18.8022 3.62586 17.4776 3.62586C14.7123 3.62586 12.819 5.31384 12.819 8.41368V11.0849H9.69141V14.7069H12.819V24.001H1.32462C0.592836 24.001 0 23.4078 0 22.6763V1.32558C0 0.593902 0.59293 0.000976562 1.32462 0.000976562H22.6755C23.407 0.000976562 24 0.593902 24 1.32558V22.6763Z" fill="#637899"/>
</svg>
