<svg width="24" height="24" viewBox="0 0 24 24" fill="none" xmlns="http://www.w3.org/2000/svg">
<path fill-rule="evenodd" clip-rule="evenodd" d="M11.9981 5.83892C10.7793 5.83892 9.58793 6.20032 8.57458 6.87743C7.56122 7.55454 6.7714 8.51694 6.30501 9.64294C5.83861 10.7689 5.71658 12.0079 5.95434 13.2033C6.19211 14.3986 6.779 15.4966 7.64079 16.3584C8.50258 17.2202 9.60056 17.8071 10.7959 18.0449C11.9912 18.2827 13.2302 18.1606 14.3562 17.6942C15.4822 17.2278 16.4446 16.438 17.1217 15.4246C17.7988 14.4113 18.1602 13.2199 18.1602 12.0011C18.1602 10.3668 17.511 8.79941 16.3554 7.64378C15.1997 6.48814 13.6324 5.83892 11.9981 5.83892ZM11.9981 16.0011C11.207 16.0011 10.4336 15.7665 9.77584 15.3269C9.11806 14.8874 8.60538 14.2627 8.30264 13.5318C7.9999 12.8009 7.9207 11.9966 8.07504 11.2207C8.22938 10.4448 8.61035 9.73208 9.16975 9.17267C9.72915 8.61327 10.4419 8.23232 11.2178 8.07798C11.9937 7.92364 12.798 8.00286 13.5288 8.30561C14.2597 8.60836 14.8844 9.12105 15.324 9.77884C15.7635 10.4366 15.9981 11.21 15.9981 12.0011C15.9981 13.062 15.5766 14.0794 14.8265 14.8295C14.0763 15.5797 13.0589 16.0011 11.9981 16.0011Z" fill="#637899"/>
<path d="M19.8448 5.59529C19.8448 6.39057 19.2001 7.03527 18.4048 7.03527C17.6095 7.03527 16.9648 6.39057 16.9648 5.59529C16.9648 4.80001 17.6095 4.15531 18.4048 4.15531C19.2001 4.15531 19.8448 4.80001 19.8448 5.59529Z" fill="#637899"/>
<path fill-rule="evenodd" clip-rule="evenodd" d="M11.9999 0.000976562C8.74101 0.000976562 8.33222 0.014791 7.0525 0.0731898C5.7752 0.131494 4.90294 0.33432 4.13965 0.630985C3.33896 0.9323 2.61363 1.40465 2.01424 2.01509C1.40367 2.61445 0.93119 3.33979 0.629765 4.14052C0.333341 4.90386 0.130516 5.77613 0.0724508 7.05344C0.0138138 8.33318 0 8.74197 0 12.001C0 15.26 0.0138138 15.6688 0.0724508 16.9486C0.130755 18.2259 0.333579 19.0981 0.630241 19.8614C0.931556 20.6621 1.4039 21.3875 2.01433 21.9869C2.61372 22.5973 3.33905 23.0697 4.13975 23.371C4.90308 23.6676 5.77535 23.8705 7.0526 23.9288C8.33252 23.9872 8.74117 24.001 12.0001 24.001C15.2591 24.001 15.6679 23.9872 16.9476 23.9288C18.2249 23.8705 19.0972 23.6676 19.8605 23.371C20.6576 23.0627 21.3816 22.5912 21.9859 21.9869C22.5903 21.3825 23.0617 20.6586 23.37 19.8614C23.6667 19.0981 23.8695 18.2258 23.9278 16.9486C23.9862 15.6686 24 15.26 24 12.001C24 8.74202 23.9862 8.33318 23.9278 7.05344C23.8695 5.77613 23.6667 4.90386 23.37 4.14057C23.0687 3.33987 22.5963 2.61453 21.9859 2.01514C21.3865 1.40457 20.6611 0.932126 19.8603 0.630747C19.097 0.33432 18.2247 0.131494 16.9474 0.073428C15.6677 0.0147904 15.2589 0.000976562 11.9999 0.000976562ZM11.9999 2.16318C15.2041 2.16318 15.5836 2.17542 16.849 2.23316C18.019 2.28655 18.6544 2.482 19.0772 2.64634C19.5985 2.83871 20.0699 3.14544 20.457 3.544C20.8556 3.93107 21.1623 4.40255 21.3547 4.92377C21.519 5.34662 21.7145 5.98201 21.7678 7.15199C21.8256 8.41739 21.8378 8.7969 21.8378 12.0011C21.8378 15.2054 21.8256 15.5848 21.7678 16.8503C21.7144 18.0203 21.519 18.6556 21.3547 19.0785C21.155 19.5961 20.8493 20.0661 20.457 20.4583C20.0648 20.8505 19.5948 21.1563 19.0772 21.356C18.6544 21.5203 18.019 21.7158 16.849 21.7691C15.5839 21.8269 15.2044 21.8391 11.9999 21.8391C8.79547 21.8391 8.41611 21.8269 7.15082 21.7691C5.98084 21.7157 5.3455 21.5202 4.92261 21.356C4.4014 21.1636 3.92992 20.8568 3.54285 20.4583C3.1443 20.0712 2.83757 19.5997 2.64519 19.0785C2.48086 18.6557 2.28537 18.0203 2.23202 16.8503C2.17429 15.5849 2.16205 15.2054 2.16205 12.0011C2.16205 8.7969 2.17429 8.41749 2.23202 7.15199C2.28542 5.98201 2.48086 5.34666 2.64519 4.92377C2.83759 4.40253 3.14435 3.93103 3.54295 3.54395C3.93002 3.1454 4.40149 2.83866 4.9227 2.64629C5.34555 2.48195 5.98093 2.28646 7.15091 2.23311C8.4163 2.17538 8.7957 2.16318 11.9999 2.16318Z" fill="#637899"/>
</svg>
